<svg xmlns="http://www.w3.org/2000/svg" viewBox="0 0 800 600" role="img" aria-labelledby="title desc">
  <title id="title">Mini car placeholder</title>
  <desc id="desc">Minimal gray car silhouette shown when no mini car photo is available.</desc>
  <rect width="800" height="600" fill="#efefef"/>
  <g transform="translate(150 214)">
    <path
      d="M40 124c0-14 4-25 14-34l28-22c15-35 49-65 86-65h150c32 0 61 11 88 33 18 14 42 21 71 21h17c8 0 14 6 14 14v61h-30c-5-30-31-53-62-53-31 0-56 23-61 53H175c-5-30-31-53-62-53-31 0-56 23-61 53H40z"
      fill="#d6d6d6"
    />
    <path d="M171 25h81v60h-126c10-32 26-53 45-60z" fill="#f5f5f5"/>
    <path d="M268 25v60h119c-16-37-42-60-78-60z" fill="#f5f5f5"/>
    <path d="M259 28v57" stroke="#d6d6d6" stroke-width="10" stroke-linecap="round"/>
    <circle cx="123" cy="132" r="42" fill="#efefef"/>
    <circle cx="123" cy="132" r="32" fill="#d6d6d6"/>
    <circle cx="392" cy="132" r="42" fill="#efefef"/>
    <circle cx="392" cy="132" r="32" fill="#d6d6d6"/>
  </g>
</svg>
