<svg xmlns="http://www.w3.org/2000/svg" viewBox="0 0 800 600" role="img" aria-labelledby="title desc">
  <title id="title">Mini car placeholder</title>
  <desc id="desc">Placeholder illustration shown when no mini car photo is available.</desc>
  <rect width="800" height="600" fill="#f8fafc"/>
  <rect x="48" y="48" width="704" height="504" rx="32" fill="#e2e8f0"/>
  <path d="M208 364c20-56 54-104 94-104h164c30 0 60 22 88 68l40 12c26 8 42 32 42 58v38H594c-8 0-14-6-14-14 0-34-28-62-62-62s-62 28-62 62c0 8-6 14-14 14H330c-8 0-14-6-14-14 0-34-28-62-62-62s-62 28-62 62c0 8-6 14-14 14H164v-30c0-18 8-34 22-44l22-16z" fill="#94a3b8"/>
  <circle cx="254" cy="422" r="54" fill="#475569"/>
  <circle cx="518" cy="422" r="54" fill="#475569"/>
  <circle cx="254" cy="422" r="24" fill="#cbd5e1"/>
  <circle cx="518" cy="422" r="24" fill="#cbd5e1"/>
  <path d="M318 278h122c18 0 36 12 52 42H274c16-28 28-42 44-42z" fill="#f8fafc"/>
  <path d="M152 142h496" stroke="#cbd5e1" stroke-width="22" stroke-linecap="round"/>
  <path d="M214 190h372" stroke="#cbd5e1" stroke-width="14" stroke-linecap="round"/>
</svg>
